<svg xmlns="http://www.w3.org/2000/svg" width="1440" height="1024" viewBox="0 0 1440 1024">
<defs>
  <filter id="shadow"><feDropShadow dx="0" dy="8" stdDeviation="14" flood-color="#1f2a44" flood-opacity=".08"/></filter>
  <style>
    .font{font-family:Arial,Helvetica,sans-serif;fill:#152033}
    .muted{fill:#6f7b8f} .white{fill:#fff} .blue{fill:#3157d5}
    .label{font-size:11px;font-weight:700;letter-spacing:1px;fill:#3157d5}
  </style>
</defs>
<rect width="1440" height="1024" fill="#f5f7fb"/>
<rect width="260" height="1024" fill="#111a2d"/>
<rect x="26" y="28" rx="12" width="44" height="44" fill="#5f7df1"/>
<text x="48" y="58" text-anchor="middle" class="white" font-size="21" font-weight="700" font-family="Arial">C</text>
<text x="84" y="46" class="white" font-size="20" font-weight="700" font-family="Arial">CompEdu</text>
<text x="84" y="64" fill="#9ba8c3" font-size="12" font-family="Arial">Acompanhamento escolar</text>
<rect x="18" y="105" width="224" height="44" rx="10" fill="#1d2941"/>
<text x="40" y="133" class="white" font-size="15" font-family="Arial">⌂</text>
<text x="70" y="133" class="white" font-size="14" font-weight="700" font-family="Arial">Início</text>
<text x="40" y="185" fill="#aeb9d0" font-size="15" font-family="Arial">▦</text>
<text x="70" y="185" fill="#aeb9d0" font-size="14" font-family="Arial">Turmas</text>
<text x="40" y="231" fill="#aeb9d0" font-size="15" font-family="Arial">☷</text>
<text x="70" y="231" fill="#aeb9d0" font-size="14" font-family="Arial">Registros</text>
<text x="300" y="42" class="label">COMPEDU</text>
<text x="300" y="76" class="font" font-size="30" font-weight="700">Visão geral</text>
<text x="300" y="100" class="muted" font-size="14" font-family="Arial">O que precisa de atenção agora.</text>
<rect x="1228" y="44" width="164" height="44" rx="10" fill="#3157d5"/>
<text x="1310" y="71" text-anchor="middle" class="white" font-size="14" font-weight="700" font-family="Arial">+ Novo registro</text>
<g filter="url(#shadow)">
<rect x="300" y="135" width="500" height="160" rx="16" fill="white" stroke="#e3e8f0"/>
<rect x="818" y="135" width="574" height="160" rx="16" fill="white" stroke="#e3e8f0"/>
</g>
<text x="322" y="166" class="label">VISÃO GERAL</text>
<text x="322" y="216" class="font" font-size="28" font-weight="700">128</text><text x="322" y="239" class="muted" font-size="12" font-family="Arial">alunos</text>
<text x="475" y="216" class="font" font-size="28" font-weight="700">6</text><text x="475" y="239" class="muted" font-size="12" font-family="Arial">turmas</text>
<text x="610" y="216" class="font" font-size="28" font-weight="700">37</text><text x="610" y="239" class="muted" font-size="12" font-family="Arial">registros no mês</text>

<text x="840" y="166" class="label">PRÓXIMO CONSELHO DE CLASSE</text>
<text x="840" y="205" class="font" font-size="22" font-weight="700">12 de setembro de 2026</text>
<rect x="840" y="232" width="245" height="40" rx="10" fill="#f8f9fc" stroke="#e3e8f0"/>
<text x="857" y="257" class="muted" font-size="13" font-family="Arial">12/09/2026</text>
<rect x="1100" y="232" width="118" height="40" rx="10" fill="#eef1f6"/>
<text x="1159" y="257" text-anchor="middle" class="font" font-size="12" font-weight="700">Salvar data</text>

<g filter="url(#shadow)">
<rect x="300" y="313" width="705" height="640" rx="16" fill="white" stroke="#e3e8f0"/>
<rect x="1023" y="313" width="369" height="640" rx="16" fill="white" stroke="#e3e8f0"/>
</g>
<text x="324" y="351" class="font" font-size="18" font-weight="700">Registros recentes</text>
<text x="324" y="372" class="muted" font-size="13" font-family="Arial">Últimas observações adicionadas pelos professores.</text>
<text x="918" y="351" class="blue" font-size="12" font-weight="700" font-family="Arial">Ver todos</text>

<circle cx="337" cy="423" r="5" fill="#7790e7"/>
<text x="357" y="421" class="font" font-size="14" font-weight="700">Ana Souza</text>
<rect x="447" y="405" width="64" height="22" rx="11" fill="#fff3df"/>
<text x="479" y="420" text-anchor="middle" fill="#c47d20" font-size="10" font-weight="700" font-family="Arial">Atenção</text>
<text x="357" y="446" class="muted" font-size="13" font-family="Arial">Conversou repetidamente durante a explicação, mesmo após duas orientações.</text>
<text x="914" y="421" class="muted" font-size="11" font-family="Arial">Hoje, 10:20</text>
<line x1="324" y1="470" x2="980" y2="470" stroke="#e3e8f0"/>

<circle cx="337" cy="512" r="5" fill="#7790e7"/>
<text x="357" y="510" class="font" font-size="14" font-weight="700">Bruno Martins</text>
<rect x="465" y="494" width="62" height="22" rx="11" fill="#eaf7ef"/>
<text x="496" y="509" text-anchor="middle" fill="#2d8a61" font-size="10" font-weight="700" font-family="Arial">Positivo</text>
<text x="357" y="535" class="muted" font-size="13" font-family="Arial">Participou da atividade em grupo e ajudou colegas.</text>
<text x="904" y="510" class="muted" font-size="11" font-family="Arial">Ontem, 14:05</text>

<text x="1047" y="351" class="font" font-size="18" font-weight="700">Alunos para acompanhar</text>
<text x="1047" y="372" class="muted" font-size="13" font-family="Arial">Maior recorrência de registros de atenção.</text>
<rect x="1047" y="405" width="42" height="42" rx="11" fill="#edf1ff"/><text x="1068" y="431" text-anchor="middle" fill="#4c64c0" font-size="12" font-weight="700" font-family="Arial">AS</text>
<text x="1103" y="420" class="font" font-size="14" font-weight="700">Ana Souza</text><text x="1103" y="440" class="muted" font-size="11" font-family="Arial">2º A · acompanhamento recente</text>
<rect x="1276" y="412" width="83" height="26" rx="13" fill="#fff3df"/><text x="1317" y="429" text-anchor="middle" fill="#c47d20" font-size="10" font-weight="700" font-family="Arial">2 registros</text>
<line x1="1047" y1="469" x2="1368" y2="469" stroke="#e3e8f0"/>
<rect x="1047" y="491" width="42" height="42" rx="11" fill="#edf1ff"/><text x="1068" y="517" text-anchor="middle" fill="#4c64c0" font-size="12" font-weight="700" font-family="Arial">DR</text>
<text x="1103" y="506" class="font" font-size="14" font-weight="700">Diego Rocha</text><text x="1103" y="526" class="muted" font-size="11" font-family="Arial">3º A · acompanhamento recente</text>
<rect x="1276" y="498" width="83" height="26" rx="13" fill="#fff3df"/><text x="1317" y="515" text-anchor="middle" fill="#c47d20" font-size="10" font-weight="700" font-family="Arial">1 registro</text>
</svg>